<svg xmlns="http://www.w3.org/2000/svg" viewBox="0 0 160 140" fill="none" role="img" aria-label="JobJitsu">
  <rect x="48" y="0" width="64" height="64" rx="14" fill="#0B0A1A"/>
  <path
    d="M66 14c14 0 18 4.5 18 14.5V48h-7.5V29.2c0-5.2-2.4-7.7-8.5-7.7H66V14z"
    fill="#F8FAFC"
  />
  <path
    d="M86 46h12.5c2.9 0 5.2-2.2 5.2-5 0-3.6-2.6-5.3-6.2-5.3H92V31h5c2.8 0 4.7-1.5 4.7-4.2 0-2.6-2.1-4.3-5-4.3H86V46z"
    fill="#2DD4BF"
  />
  <text
    x="80"
    y="108"
    text-anchor="middle"
    fill="#F8FAFC"
    font-family="Inter, system-ui, -apple-system, sans-serif"
    font-size="28"
    font-weight="700"
    letter-spacing="-0.03em"
  >JobJitsu</text>
  <text
    x="80"
    y="130"
    text-anchor="middle"
    fill="#2DD4BF"
    font-family="Inter, system-ui, -apple-system, sans-serif"
    font-size="11"
    font-weight="500"
    letter-spacing="0.06em"
  >ON-DEVICE · ON-TARGET · ON YOUR TERMS</text>
</svg>
