<svg xmlns="http://www.w3.org/2000/svg" viewBox="0 0 64 64" fill="none" role="img" aria-label="JobJitsu">
  <!-- Leverage Belt icon: indigo belt / J + Electric Teal envelope flap (brand guidelines) -->
  <rect width="64" height="64" rx="14" fill="#0B0A1A"/>
  <!-- Belt body / stylised J -->
  <path
    d="M18 14c14 0 18 4.5 18 14.5V48h-7.5V29.2c0-5.2-2.4-7.7-8.5-7.7H18V14z"
    fill="#F8FAFC"
  />
  <!-- Envelope flap accent  Electric Teal only -->
  <path
    d="M38 46h12.5c2.9 0 5.2-2.2 5.2-5 0-3.6-2.6-5.3-6.2-5.3H44V31h5c2.8 0 4.7-1.5 4.7-4.2 0-2.6-2.1-4.3-5-4.3H38V46z"
    fill="#2DD4BF"
  />
  <path
    d="M44 35.7h5.8c1.5 0 2.5.8 2.5 2.1 0 1.2-.9 2.1-2.4 2.1H44v-4.2z"
    fill="#0B0A1A"
    opacity="0.35"
  />
</svg>
