<svg xmlns="http://www.w3.org/2000/svg" width="1200" height="630" viewBox="0 0 1200 630" fill="none" role="img" aria-label="JobJitsu  The gentle art of landing the job.">
  <!-- Brand social preview: Deep Indigo field, white icon, Inter bold tagline, teal edge -->
  <rect width="1200" height="630" fill="#1E1B4B"/>
  <rect y="610" width="1200" height="20" fill="#2DD4BF"/>
  <!-- Icon -->
  <g transform="translate(520 120)">
    <rect width="160" height="160" rx="36" fill="#0B0A1A"/>
    <path
      d="M45 35c35 0 45 11 45 36v60h-19V74c0-13-6-19-21-19H45V35z"
      fill="#F8FAFC"
    />
    <path
      d="M95 115h31c7 0 13-5.5 13-12.5 0-9-6.5-13-15.5-13H110V78h12.5c7 0 12-3.7 12-10.5S119 56 112 56H95v59z"
      fill="#2DD4BF"
    />
  </g>
  <text
    x="600"
    y="380"
    text-anchor="middle"
    fill="#FFFFFF"
    font-family="Inter, system-ui, -apple-system, sans-serif"
    font-size="56"
    font-weight="700"
    letter-spacing="-0.03em"
  >JobJitsu</text>
  <text
    x="600"
    y="440"
    text-anchor="middle"
    fill="#F8FAFC"
    font-family="Inter, system-ui, -apple-system, sans-serif"
    font-size="28"
    font-weight="500"
  >The gentle art of landing the job.</text>
  <text
    x="600"
    y="500"
    text-anchor="middle"
    fill="#2DD4BF"
    font-family="Inter, system-ui, -apple-system, sans-serif"
    font-size="18"
    font-weight="500"
    letter-spacing="0.08em"
  >ON-DEVICE · ON-TARGET · ON YOUR TERMS</text>
</svg>
